<svg xmlns="http://www.w3.org/2000/svg" viewBox="0 0 128 128">
  <defs>
    <linearGradient id="sesGrad" x1="0%" y1="0%" x2="100%" y2="100%">
      <stop offset="0%" stop-color="#FEF08A"/>
      <stop offset="50%" stop-color="#EAB308"/>
      <stop offset="100%" stop-color="#A16207"/>
    </linearGradient>
  </defs>
  <!-- Seed 1 -->
  <path d="M46 32 C58 32 64 54 60 70 C56 82 46 84 42 80 C36 74 34 54 40 40 Z" fill="url(#sesGrad)"/>
  <!-- Seed 2 -->
  <path d="M82 48 C94 48 100 68 96 82 C92 94 82 96 78 92 C72 86 70 68 76 54 Z" fill="url(#sesGrad)"/>
  <!-- Seed 3 small -->
  <path d="M56 82 C64 82 68 96 66 106 C64 112 58 114 54 110 C50 106 48 94 52 86 Z" fill="url(#sesGrad)"/>
</svg>